<!DOCTYPE svg PUBLIC "-//W3C//DTD SVG 1.1//EN" "http://www.w3.org/Graphics/SVG/1.1/DTD/svg11.dtd">
<!-- Uploaded to: SVG Repo, www.svgrepo.com, Transformed by: SVG Repo Mixer Tools -->
<svg fill="#f2b27d" height="226px" width="226px" version="1.1" id="Capa_1" xmlns="http://www.w3.org/2000/svg" xmlns:xlink="http://www.w3.org/1999/xlink" viewBox="-17.82 -17.82 332.64 332.64" xml:space="preserve" stroke="#f2b27d" transform="rotate(0)">
<g id="SVGRepo_bgCarrier" stroke-width="0"/>
<g id="SVGRepo_tracerCarrier" stroke-linecap="round" stroke-linejoin="round" stroke="#000000" stroke-width="13.662"> <path d="M148.5,0C87.43,0,37.747,49.703,37.747,110.797c0,91.026,99.729,179.905,103.976,183.645 c1.936,1.705,4.356,2.559,6.777,2.559c2.421,0,4.841-0.853,6.778-2.559c4.245-3.739,103.975-92.618,103.975-183.645 C259.253,49.703,209.57,0,148.5,0z M148.5,79.693c16.964,0,30.765,13.953,30.765,31.104c0,17.151-13.801,31.104-30.765,31.104 c-16.964,0-30.765-13.953-30.765-31.104C117.735,93.646,131.536,79.693,148.5,79.693z"/> </g>
<g id="SVGRepo_iconCarrier"> <path d="M148.5,0C87.43,0,37.747,49.703,37.747,110.797c0,91.026,99.729,179.905,103.976,183.645 c1.936,1.705,4.356,2.559,6.777,2.559c2.421,0,4.841-0.853,6.778-2.559c4.245-3.739,103.975-92.618,103.975-183.645 C259.253,49.703,209.57,0,148.5,0z M148.5,79.693c16.964,0,30.765,13.953,30.765,31.104c0,17.151-13.801,31.104-30.765,31.104 c-16.964,0-30.765-13.953-30.765-31.104C117.735,93.646,131.536,79.693,148.5,79.693z"/> </g>
</svg>