<!-- icon666.com - MILLIONS OF FREE VECTOR ICONS --><svg viewBox="0 0 64 64" xmlns="http://www.w3.org/2000/svg"><path d="m57.692 20.106h-4.592v-3.527a1.389 1.389 0 0 0 -1.39-1.389h-39.419a1.39 1.39 0 0 0 -1.391 1.389v3.527h-4.592a2.105 2.105 0 0 0 -2.1 2.1v3.1a4.354 4.354 0 0 0 4.349 4.35h2.343v.844a9.219 9.219 0 0 0 8.532 9.179l-2.588 22.74a1 1 0 0 0 .993 1.113h5.2a1 1 0 0 0 .993-.886l.9-7.912h14.13l.9 7.912a1 1 0 0 0 .993.886h5.2a1 1 0 0 0 .993-1.113l-2.584-22.743a9.22 9.22 0 0 0 8.538-9.176v-.833h2.348a4.354 4.354 0 0 0 4.349-4.35v-3.1a2.105 2.105 0 0 0 -2.105-2.111zm-6.595 0h-7.897v-2.916h7.9zm-27.44 0v-2.916h7.9v2.916zm9.9-2.916h7.643v2.916h-7.645zm-11.9 0v2.916h-8.757v-2.916zm-13.102 10.473a2.352 2.352 0 0 1 -2.349-2.35v-3.1a.1.1 0 0 1 .1-.1h4.594v5.557zm13.593 33.865h-3.189l2.483-21.818h3.19zm15.2-21.818.919 8.076h-12.542l.919-8.076zm-12.186 13.02.335-2.944h13l.335 2.944zm16.685 8.8-2.484-21.82h3.191l2.483 21.818zm9.253-31.03a7.222 7.222 0 0 1 -7.213 7.214h-23.771a7.223 7.223 0 0 1 -7.216-7.214v-8.39h38.2zm6.7-5.183a2.352 2.352 0 0 1 -2.349 2.35h-2.351v-5.561h4.595a.1.1 0 0 1 .1.1z"></path><path d="m31 .469h2v11.588h-2z"></path><path d="m45.157.469h2v11.588h-2z"></path><path d="m38.078 4.502h2v7.555h-2z"></path><path d="m16.844.469h2v11.588h-2z"></path><path d="m23.922 4.502h2v7.555h-2z"></path><path d="m23.804 32.084h16.532v2h-16.532z"></path></svg>