<?xml version="1.0" standalone="no"?>
<!DOCTYPE svg PUBLIC "-//W3C//DTD SVG 20010904//EN"
 "http://www.w3.org/TR/2001/REC-SVG-20010904/DTD/svg10.dtd">
<svg version="1.0" xmlns="http://www.w3.org/2000/svg"
 width="1280.000000pt" height="399.000000pt" viewBox="0 0 1280.000000 399.000000"
 preserveAspectRatio="xMidYMid meet">
<metadata>
Created by potrace 1.16, written by Peter Selinger 2001-2019
</metadata>
<g transform="translate(0.000000,399.000000) scale(0.100000,-0.100000)"
fill="#000000" stroke="none">
<path d="M3465 3860 c-44 -3 -75 -8 -70 -9 29 -8 -53 -19 -150 -20 -60 -1
-116 -5 -124 -10 -8 -5 138 -9 350 -10 200 -1 555 -6 789 -11 931 -21 4361 -9
5200 17 216 7 219 19 5 24 -108 3 -109 3 -35 8 l75 6 -115 7 c-151 10 -1390 9
-1455 -2 -42 -6 -32 -8 65 -10 118 -2 118 -3 -5 -28 -31 -7 -153 -9 -315 -6
-146 3 -753 4 -1350 3 -597 0 -1211 -1 -1365 -1 -208 0 -300 4 -360 15 l-80
15 100 2 c67 2 90 5 70 10 -37 9 -1118 9 -1230 0z"/>
<path d="M440 3620 c-11 -7 -4 -10 27 -10 33 0 41 -3 37 -14 -5 -12 25 -15
192 -16 108 0 200 -3 204 -5 3 -2 128 -7 276 -10 148 -3 364 -10 479 -16 264
-11 264 -11 245 1 -8 5 -41 10 -72 10 -31 0 -60 5 -63 10 -3 6 -3 10 2 10 4 0
121 6 258 14 344 19 8488 16 8740 -4 163 -12 232 -30 117 -30 -36 0 -62 -4
-62 -10 0 -7 24 -9 63 -6 69 5 314 13 662 22 126 3 232 7 236 9 3 3 102 5 218
5 183 1 211 3 200 16 -9 11 -7 14 15 14 14 0 26 4 26 10 0 14 -11779 14
-11800 0z"/>
<path d="M2130 3540 c0 -6 73 -10 198 -10 108 0 421 -7 696 -15 274 -8 502
-13 506 -10 4 3 153 1 331 -5 377 -11 2827 -25 2818 -16 -6 6 -337 11 -1509
22 -399 3 -736 8 -750 11 -14 2 -326 6 -695 8 -368 2 -780 8 -915 14 -317 14
-680 14 -680 1z"/>
<path d="M9855 3538 c-88 -5 -430 -10 -760 -12 -330 -1 -866 -8 -1192 -14
-325 -6 -726 -12 -890 -12 -165 -1 -306 -5 -313 -10 -14 -9 1197 -6 1890 5
212 3 513 8 670 10 157 3 420 9 585 15 165 5 389 10 498 10 124 0 197 4 197
10 0 12 -454 11 -685 -2z"/>
<path d="M4060 2905 c-52 -7 -105 -14 -117 -14 -29 -1 -60 -35 -69 -75 -3 -16
-10 -37 -14 -46 -19 -35 -40 -89 -40 -99 0 -6 -4 -19 -9 -29 -19 -34 -41 -90
-41 -101 0 -6 -4 -19 -9 -29 -19 -34 -41 -90 -41 -101 0 -6 -4 -19 -9 -29 -19
-34 -41 -90 -41 -101 0 -6 -4 -19 -9 -29 -19 -34 -41 -90 -41 -101 0 -6 -4
-19 -9 -29 -19 -34 -41 -90 -41 -101 0 -6 -4 -19 -9 -29 -5 -9 -17 -37 -26
-62 -10 -25 -23 -58 -30 -75 -7 -16 -16 -41 -20 -55 -4 -14 -20 -53 -36 -88
-16 -35 -29 -66 -29 -69 0 -22 -56 -74 -91 -84 -22 -7 -44 -20 -48 -28 -13
-24 -22 -134 -13 -149 7 -9 80 -12 333 -10 l324 3 8 40 c26 126 27 125 -86
125 -45 0 -92 6 -112 14 -32 14 -35 18 -35 58 1 24 17 87 38 143 l37 100 55 6
c30 4 135 10 232 14 l177 8 6 -29 c4 -16 10 -38 15 -49 21 -52 51 -177 48
-202 -4 -35 -33 -50 -123 -62 -38 -6 -72 -16 -77 -23 -4 -7 -7 -42 -6 -78 l3
-65 340 -3 c187 -1 350 0 363 3 19 5 22 12 22 50 0 24 5 56 12 70 6 14 9 27 6
30 -3 3 -32 12 -64 20 -32 9 -70 23 -83 33 -29 21 -61 79 -86 157 -10 33 -22
67 -26 75 -5 8 -16 42 -25 75 -9 33 -21 64 -26 70 -4 5 -8 16 -8 24 0 8 -12
53 -26 100 -60 196 -74 245 -128 441 -56 202 -89 321 -104 370 -7 22 -13 25
-62 26 -30 1 -98 -4 -150 -11z m4 -390 c9 -33 25 -89 36 -125 24 -84 47 -165
61 -215 6 -22 15 -50 20 -63 5 -13 7 -28 4 -33 -4 -5 -83 -9 -177 -9 -158 0
-170 1 -163 18 15 33 67 178 102 282 19 58 41 119 48 135 8 17 19 43 25 59 14
37 22 27 44 -49z"/>
<path d="M9045 2910 c-33 -4 -178 -8 -322 -9 -144 -1 -264 -4 -267 -9 -2 -4
-8 -40 -11 -80 l-8 -72 75 0 c61 0 78 -4 97 -21 l22 -21 -3 -531 -3 -532 -23
-33 c-25 -35 -69 -62 -100 -62 -11 0 -30 -8 -43 -18 -19 -16 -22 -29 -23 -88
-1 -60 1 -69 17 -68 9 0 163 1 342 2 l325 2 10 24 c5 14 10 53 12 88 l3 63
-45 1 c-110 1 -130 4 -151 25 -22 22 -22 23 -16 383 7 410 21 671 36 719 12
35 61 67 104 67 43 0 56 20 57 90 2 88 2 90 -12 89 -7 -1 -40 -5 -73 -9z"/>
<path d="M10046 2913 c-4 -4 -145 -10 -314 -13 l-307 -5 -6 -52 c-4 -29 -10
-60 -13 -70 -10 -24 11 -33 81 -33 76 0 89 -12 99 -87 9 -72 -3 -989 -13
-1023 -15 -49 -29 -61 -89 -76 -75 -20 -84 -28 -84 -76 0 -22 -5 -48 -11 -59
-7 -15 -7 -24 2 -35 16 -19 661 -21 676 -1 6 6 13 35 16 62 4 28 9 59 13 71 5
20 1 21 -79 27 -108 9 -115 12 -123 54 -9 49 12 1031 23 1067 9 30 71 70 124
81 25 4 26 9 32 81 4 42 4 80 1 85 -6 11 -18 12 -28 2z"/>
<path d="M2344 2903 c-230 -3 -273 -6 -278 -18 -3 -9 -8 -44 -12 -80 l-7 -65
70 0 c117 0 108 47 107 -564 0 -468 -2 -525 -17 -558 -20 -44 -46 -63 -105
-77 -24 -5 -46 -11 -48 -14 -8 -8 -25 -130 -20 -144 4 -10 71 -13 349 -13
l345 0 10 28 c15 43 29 131 22 142 -4 6 -45 10 -100 9 -131 -2 -130 -4 -130
201 l0 159 53 5 c28 3 97 8 153 11 99 5 137 13 202 42 18 8 45 20 60 26 94 42
196 135 246 224 49 86 60 133 60 253 0 107 -2 119 -29 175 -55 112 -176 208
-310 245 -49 13 -260 18 -621 13z m405 -214 c93 -16 153 -49 193 -106 33 -48
33 -48 32 -168 0 -112 -2 -123 -28 -168 -37 -64 -92 -113 -144 -128 -34 -9
-68 -9 -155 0 -61 7 -113 14 -115 16 -5 4 14 368 25 493 l6 72 60 0 c33 0 90
-5 126 -11z"/>
<path d="M5288 2903 c-305 -4 -281 5 -293 -100 l-7 -63 71 0 c60 0 73 -3 91
-22 21 -23 21 -27 18 -555 -3 -616 4 -572 -106 -608 -33 -11 -65 -25 -71 -30
-5 -6 -11 -41 -13 -80 l-3 -70 323 -3 322 -2 12 27 c6 16 13 53 16 84 5 63 8
60 -90 74 -81 12 -83 19 -83 234 l0 186 81 3 82 3 30 -58 c31 -61 62 -118 104
-193 14 -25 44 -81 68 -125 70 -132 127 -196 206 -235 46 -23 126 -26 251 -10
123 16 123 16 123 51 0 17 4 39 10 49 20 38 -1 55 -104 86 -79 24 -138 83
-243 244 -45 69 -86 130 -90 135 -20 25 -84 127 -81 130 2 1 32 22 68 45 93
62 179 153 219 233 33 64 34 73 35 175 0 140 -13 171 -113 269 -38 37 -73 58
-156 93 -76 33 -211 39 -677 33z m438 -206 c61 -16 117 -57 153 -112 23 -35
26 -50 26 -120 -1 -97 -22 -150 -86 -214 -72 -71 -107 -81 -233 -68 l-106 11
0 100 c0 95 18 376 26 404 5 17 154 16 220 -1z"/>
<path d="M6596 2899 c-34 -120 -30 -143 27 -154 81 -17 140 -41 155 -63 13
-20 14 -60 8 -305 -19 -698 -21 -740 -38 -773 -23 -41 -42 -56 -85 -63 -30 -5
-38 -12 -49 -41 -7 -19 -13 -56 -13 -82 l-1 -48 294 0 c223 0 296 3 304 13 5
6 12 30 15 52 3 22 9 55 13 73 l6 32 -53 0 c-73 1 -140 15 -150 31 -11 17 -12
829 -1 829 8 0 92 -110 172 -225 14 -20 36 -51 50 -70 14 -19 36 -50 50 -70
14 -19 35 -48 48 -63 12 -15 25 -35 28 -44 3 -10 10 -18 15 -18 5 0 9 -5 9
-10 0 -6 11 -23 25 -38 14 -15 25 -32 25 -39 0 -6 4 -13 8 -15 5 -2 28 -32 53
-68 24 -36 46 -67 49 -70 3 -3 14 -18 24 -35 11 -16 23 -34 28 -40 25 -31 168
-240 168 -247 0 -4 8 -12 19 -17 21 -12 181 3 211 19 15 8 18 40 24 342 11
596 24 942 35 973 13 34 69 75 103 75 43 0 50 14 52 89 l1 72 -285 -1 c-209
-1 -288 -4 -296 -13 -7 -7 -15 -42 -19 -78 l-6 -66 68 -7 c37 -4 75 -11 83
-16 9 -6 17 -35 21 -87 10 -109 11 -713 1 -713 -5 0 -21 18 -38 41 -16 22 -34
46 -39 52 -19 22 -286 395 -366 512 -19 28 -36 52 -39 55 -3 3 -52 76 -110
163 l-105 157 -186 0 c-102 0 -214 3 -247 6 -48 5 -62 4 -66 -7z"/>
<path d="M10255 2900 c-9 -15 -27 -129 -23 -142 4 -9 25 -18 55 -22 60 -8 97
-37 87 -69 -11 -36 -44 -74 -253 -285 -161 -162 -201 -208 -201 -229 0 -18 44
-92 132 -222 329 -490 340 -503 444 -556 l53 -27 156 13 c179 15 178 14 173
107 -3 62 5 56 -98 82 -56 15 -146 103 -245 240 -38 52 -71 97 -75 100 -3 3
-42 55 -85 115 -44 61 -82 112 -85 115 -3 3 -18 22 -33 43 l-28 37 248 248
c197 197 259 253 301 272 43 19 54 29 62 59 20 72 23 110 9 116 -19 6 -590 11
-594 5z"/>
<path d="M5580 457 c-3 -3 -405 -8 -895 -11 -489 -3 -1014 -8 -1165 -11 -151
-3 -412 -8 -580 -11 -168 -2 -341 -6 -385 -8 -106 -5 -791 -20 -927 -21 -58 0
-104 -3 -101 -8 6 -10 490 -8 683 4 91 6 453 12 805 14 352 3 651 7 665 11 93
22 4654 25 5220 3 146 -6 537 -12 870 -14 333 -2 664 -8 735 -14 144 -12 542
-15 532 -4 -4 3 -98 8 -209 10 -206 4 -419 10 -628 18 -206 9 -1262 25 -1955
30 -1170 9 -2661 16 -2665 12z"/>
<path d="M1268 384 c-2 -1 -100 -5 -218 -9 -118 -4 -224 -9 -235 -11 -11 -2
-57 -5 -102 -5 -46 0 -83 -5 -83 -10 0 -5 48 -9 110 -9 91 0 110 -3 110 -15 0
-13 31 -15 208 -17 114 -1 227 -2 252 -3 25 -1 77 1 115 4 l70 7 -110 7 c-116
8 -155 14 -155 27 0 13 41 20 114 20 38 0 67 2 65 4 -5 4 -137 14 -141 10z"/>
<path d="M11115 380 c-28 -5 -9 -8 65 -9 58 -1 114 -6 125 -11 l20 -9 -20 -1
c-11 -1 -27 -3 -35 -4 -8 -2 -40 -6 -70 -10 -51 -5 -122 -22 -110 -26 3 -1
316 -3 695 -6 448 -3 695 -1 705 5 35 24 -16 31 -285 41 -397 14 -797 28 -885
30 -41 1 -95 3 -120 4 -25 1 -63 -1 -85 -4z"/>
<path d="M1775 310 c-22 -4 1989 -7 4470 -7 2481 0 4497 3 4480 7 -38 10
-8896 10 -8950 0z"/>
<path d="M4310 143 c-1400 -18 -1858 -27 -1869 -39 -2 -2 81 -5 185 -6 187 -2
187 -2 42 -5 -84 -2 -148 -8 -148 -13 0 -6 1432 -10 3837 -10 2110 0 3833 3
3829 7 -4 5 -71 11 -149 14 l-142 5 175 3 c257 4 168 18 -135 21 -143 1 -298
4 -345 5 -216 8 -1823 26 -1828 21 -3 -3 19 -7 49 -7 l54 -2 -55 -7 c-69 -10
-2788 -12 -2896 -3 -57 5 -72 9 -54 14 23 7 -164 7 -550 2z"/>
</g>
</svg>
