<!-- icon666.com - MILLIONS OF FREE VECTOR ICONS --><svg id="Layer_1" enable-background="new 0 0 32 32" viewBox="0 0 32 32" xmlns="http://www.w3.org/2000/svg"><g><path d="m16 32c-2.8339844 0-12-13.1806641-12-19.9345703 0-6.652832 5.3833008-12.0654297 12-12.0654297s12 5.4125977 12 12.0654297c0 6.7539062-9.1660156 19.9345703-12 19.9345703zm0-30c-5.5141602 0-10 4.5151367-10 10.0654297 0 6.0878906 8.0737305 16.9667969 10 17.9033203 1.9262695-.9365234 10-11.8154297 10-17.9033203 0-5.550293-4.4858398-10.0654297-10-10.0654297zm0 15.1474609c-2.7568359 0-5-2.2431641-5-5s2.2431641-5 5-5 5 2.2431641 5 5-2.2431641 5-5 5zm0-8c-1.6542969 0-3 1.3457031-3 3s1.3457031 3 3 3 3-1.3457031 3-3-1.3457031-3-3-3z"></path></g></svg>