<!-- icon666.com - MILLIONS OF FREE VECTOR ICONS --><svg version="1.1" id="Capa_1" xmlns="http://www.w3.org/2000/svg" xmlns:xlink="http://www.w3.org/1999/xlink" x="0px" y="0px" viewBox="0 0 512 512" style="enable-background:new 0 0 512 512;" xml:space="preserve"><g><g><path d="M508.565,320.671c-3.481-2.246-8.123-1.244-10.37,2.235c-3.524,5.462-7.958,10.107-13.029,13.803V187.803 c0-8.542-6.95-15.493-15.494-15.493h-70.632v-40.052c0-32.193-26.192-58.385-58.386-58.385c-32.193,0-58.384,26.191-58.384,58.385 v40.052h-21.558v-40.052c0-24.113-15.178-46.062-37.767-54.614c-3.875-1.467-8.203,0.484-9.671,4.357 c-1.467,3.874,0.485,8.203,4.358,9.671c16.794,6.359,28.079,22.669,28.079,40.586v40.052H230.07v-40.052 c0-15.298-12.446-27.743-27.745-27.743c-15.299,0-27.745,12.445-27.745,27.743v211.084c-4.954,1.837-10.218,2.919-15.642,3.161 V132.258c0-18.294,11.601-34.722,28.866-40.876c3.901-1.391,5.937-5.682,4.546-9.584c-1.391-3.902-5.681-5.939-9.583-4.546 c-23.224,8.279-38.829,30.385-38.829,55.006v40.052H42.327c-8.542,0-15.494,6.95-15.494,15.493v148.904 c-5.069-3.696-9.504-8.339-13.029-13.803c-2.246-3.48-6.89-4.482-10.37-2.235c-3.48,2.245-4.481,6.888-2.236,10.369 c24.07,37.306,76.704,40.855,105.702,8.287c26.439,29.694,73.006,29.643,99.399,0.001c26.448,29.714,73.001,29.661,99.401,0 c26.439,29.694,73.006,29.643,99.399-0.001c29.009,32.581,81.642,29.002,105.702-8.287 C513.047,327.558,512.046,322.916,508.565,320.671z M143.939,345.008c-12.525-3.151-23.524-10.926-30.736-22.102 c-1.348-2.085-3.7-3.43-6.315-3.429c-2.578,0.006-4.935,1.335-6.29,3.429c-12.837,19.895-36.925,28.118-58.764,21.333V187.803 c0-0.271,0.221-0.492,0.493-0.492h101.613V345.008z M189.583,132.258c-0.001-7.025,5.716-12.742,12.743-12.742 c7.026,0,12.744,5.716,12.744,12.742v40.052h-25.486V132.258z M282.269,339.396c-23.495,13.921-54.358,7.237-69.667-16.49 c-1.337-2.073-3.697-3.435-6.324-3.429c-2.553,0.011-4.911,1.312-6.28,3.429c-2.904,4.501-6.43,8.442-10.416,11.761v-37.502 h92.687V339.396z M282.269,282.165h-92.687v-38.681h92.687V282.165z M282.269,228.483h-92.687v-41.171c9.32,0,83.552,0,92.687,0 V228.483z M470.165,344.238c-21.218,6.593-45.26-0.778-58.803-21.387c-1.369-2.081-3.718-3.375-6.275-3.373 c-2.572,0.006-4.934,1.328-6.29,3.429c-15.58,24.147-47.324,30.604-70.883,15.767v-85.189c0-4.143-3.358-7.5-7.5-7.5 c-4.142,0-7.5,3.357-7.5,7.5v70.74c-1.127-1.635-2.767-4.543-6.851-4.736c-5.099-0.25-6.811,3.815-8.789,6.454V132.258 c0-23.922,19.462-43.384,43.383-43.384c23.922,0,43.385,19.462,43.385,43.384v40.052h-15.642v-40.052 c0-15.298-12.446-27.743-27.745-27.743c-15.297,0-27.743,12.445-27.743,27.743v86.224c0,4.143,3.358,7.5,7.5,7.5 c4.142,0,7.5-3.357,7.5-7.5v-31.171c4.587,0,137.017,0,141.76,0c0.272,0,0.493,0.221,0.493,0.492V344.238z M353.398,132.258 v40.052h-25.485v-40.052c0-7.025,5.715-12.742,12.742-12.742C347.681,119.517,353.398,125.233,353.398,132.258z"></path></g></g><g><g><path d="M409.166,397.22c-3.48-2.245-8.122-1.244-10.37,2.235c-20.368,31.569-66.452,31.527-86.794,0 c-1.382-2.137-3.766-3.43-6.315-3.428c-2.546,0.006-4.919,1.305-6.29,3.428c-20.014,31.019-65.69,32.121-86.834-0.056 c-1.39-2.114-3.753-3.374-6.275-3.373c-2.61,0.008-4.953,1.362-6.29,3.428c-20.369,31.569-66.452,31.527-86.794,0 c-2.246-3.48-6.89-4.481-10.37-2.235c-3.48,2.245-4.481,6.888-2.236,10.369c24.071,37.307,76.705,40.854,105.702,8.287 c26.44,29.696,73.006,29.643,99.4,0c29.006,32.579,81.64,29.006,105.702-8.287C413.648,404.108,412.647,399.465,409.166,397.22z"></path></g></g></svg>