<!-- icon666.com - MILLIONS OF FREE VECTOR ICONS --><svg id="Layer_1" enable-background="new 0 0 128 128" viewBox="0 0 128 128" xmlns="http://www.w3.org/2000/svg"><path d="m120.8 81.6c-2.7-1.1-5.7-1.1-8.4.1l-1.2.5c-1.2-2.1-3.1-3.7-5.3-4.6-2.7-1.1-5.7-1.1-8.4.1l-11.6 4.9c-1.5.6-2.2 2.4-1.6 3.9.5 1.1 1.6 1.8 2.8 1.8.4 0 .8-.1 1.2-.2l11.6-4.9c1.2-.5 2.6-.5 3.8 0 .8.3 1.4.8 1.9 1.4l-23.5 10c.3-4.5-2.1-8.9-6.5-10.8l-26-11.6c-11-4.9-23.8-3.4-33.4 3.9l-3.9 3c-.1.1-.2.2-.3.3l-1 1c-.6.6-.9 1.3-.9 2.1v32h-6.1c-1.7 0-3 1.3-3 3s1.3 3 3 3h9c1.7 0 3-1.3 3-3v-33.8l3.8-2.9c7.9-6 18.3-7.2 27.4-3.2l25.8 11.6c1.2.5 2.2 1.5 2.6 2.8.5 1.2.4 2.6-.1 3.8s-1.5 2.1-2.7 2.6-2.6.4-3.8-.1l-20-8.9c-1.5-.7-3.3 0-4 1.5s0 3.3 1.5 4l20 8.9c2.7 1.2 5.7 1.3 8.4.2.4-.1.8-.3 1.1-.5.2 0 .3-.1.4-.1l38.2-16.2c1.2-.5 2.6-.5 3.8 0s2.2 1.5 2.7 2.7.5 2.6 0 3.8-1.5 2.2-2.7 2.7l-56.4 23.8c-4.5 1.9-9.7 1.8-14.1-.4l-23.8-11.6c-1.5-.7-3.3-.1-4 1.4s-.1 3.3 1.4 4l23.8 11.6c3.2 1.6 6.6 2.3 10.1 2.3 3 0 6.1-.6 9-1.8l56.4-23.8c2.7-1.1 4.8-3.3 5.9-6s1.1-5.7-.1-8.4c-1-2.7-3.1-4.8-5.8-5.9z"></path><path d="m73.4 48.8h2.8c17.2 0 31.3-14 31.3-31.3v-1.4c0-1.7-1.3-3-3-3h-1.4c-3.4 0-6.8.5-10 1.6-2.4.8-4.7 1.9-6.8 3.3-1.2-5.6-4-11-8.4-15.3l-1-1c-1.2-1.2-3.1-1.2-4.2 0l-1 1c-8.5 8.5-11.4 21.4-7.3 32.8.6 1.6 2.3 2.4 3.8 1.8 1.6-.6 2.4-2.3 1.8-3.8-3.1-8.7-1.2-18.4 4.8-25.3 8.7 9.9 8.3 25.1-1.1 34.6l-.1.1h-.2c-.5 0-1 0-1.4-.1 0 0 0-.1-.1-.1v.1c-10.3-.6-19.2-7.4-22.5-17.2-.7-2.1-1.1-4.2-1.3-6.4 2.2.1 4.4.6 6.5 1.3 1.6.5 3.3-.3 3.8-1.9s-.3-3.3-1.9-3.8c-3.2-1.1-6.6-1.7-10.1-1.7h-1.4c-1.7 0-3 1.3-3 3v1.4c0 3.4.5 6.8 1.6 10 4.4 12.7 16.3 21.3 29.8 21.3z"></path></svg>