<?xml version="1.0" encoding="UTF-8" standalone="no"?>
<!-- icon666.com - MILLIONS OF FREE VECTOR ICONS -->

<svg
   version="1.1"
   id="Capa_1"
   x="0px"
   y="0px"
   viewBox="0 0 512 512"
   style="enable-background:new 0 0 512 512;"
   xml:space="preserve"
   sodipodi:docname="2f7738ef51b59769502654ca6aa5ef69.svg"
   xmlns:inkscape="http://www.inkscape.org/namespaces/inkscape"
   xmlns:sodipodi="http://sodipodi.sourceforge.net/DTD/sodipodi-0.dtd"
   xmlns="http://www.w3.org/2000/svg"
   xmlns:svg="http://www.w3.org/2000/svg"><defs
     id="defs77" /><sodipodi:namedview
     id="namedview75"
     pagecolor="#ffffff"
     bordercolor="#666666"
     borderopacity="1.0"
     inkscape:pageshadow="2"
     inkscape:pageopacity="0.0"
     inkscape:pagecheckerboard="0" /><g
     id="g6"><g
       id="g4"><path
         d="M170.78,194.931c-1.87-1.86-4.44-2.93-7.08-2.93c-2.631,0-5.21,1.07-7.07,2.93s-2.93,4.44-2.93,7.07s1.069,5.21,2.93,7.07 c1.87,1.86,4.44,2.93,7.07,2.93s5.21-1.07,7.08-2.93c1.859-1.86,2.92-4.44,2.92-7.07S172.639,196.791,170.78,194.931z"
         id="path2" /></g></g><g
     id="g12"><g
       id="g10"><path
         d="M482,156.001h-24v-34.152c0-3.941-2.314-7.515-5.911-9.126l-47.326-21.204c-3.787-1.696-8.227-0.878-11.16,2.055 l-9.133,9.133l-55.642-5.3c-3.883-0.367-7.609,1.542-9.576,4.9l-9.536,16.276l-7.003-7.003 c-11.529-11.528-30.335-11.578-41.925-0.116l-14.241,14.084l-13.891-13.892c-11.59-11.589-30.45-11.591-42.042,0l-25.41,25.41 v-15.218c0-3.941-2.314-7.515-5.911-9.126l-47.327-21.204c-3.788-1.696-8.227-0.878-11.16,2.055l-59.904,59.904 c-0.76,0.76-1.368,1.614-1.832,2.523H30c-16.542,0-30,13.458-30,30v316c0,5.522,4.478,10,10,10h492c5.522,0,10-4.478,10-10 V186.001C512,169.459,498.542,156.001,482,156.001z M402.873,112.588L438,128.327v27.674h-78.54L402.873,112.588z M333.283,117.922l32.843,3.128l-26.972,26.972l-14.823-14.823L333.283,117.922z M274.853,125.685 c3.794-3.751,9.947-3.733,13.718,0.038l30.278,30.278h-41.851l-16.309-16.31L274.853,125.685z M204.756,125.8 c1.837-1.837,4.28-2.85,6.879-2.85c2.598,0,5.041,1.012,6.878,2.849l30.202,30.202h-74.16L204.756,125.8z M110.075,112.588 l35.128,15.739v27.674h-78.54L110.075,112.588z M74,492.001H20v-226h54V492.001z M159.92,492.001H94v-226h65.92V492.001z M245.84,492.001h-65.92v-226h65.92V492.001z M331.761,492.001H265.84v-226h65.921V492.001z M417.681,492.001h-65.92v-226h65.92 V492.001z M492,492.001h-54.319v-226H492V492.001z M492,212.001H387.181c-5.522,0-10,4.477-10,10s4.478,10,10,10H492v14H20v-34 h109.705c5.522,0,10-4.477,10-10s-4.478-10-10-10H20v-6c0-5.514,4.487-10,10-10h452c5.514,0,10,4.486,10,10V212.001z"
         id="path8" /></g></g><g
     id="g18"><g
       id="g16"><path
         d="M360.25,214.931c-1.86-1.86-4.44-2.93-7.07-2.93s-5.21,1.07-7.07,2.93c-1.859,1.86-2.93,4.44-2.93,7.07 s1.07,5.21,2.93,7.07c1.86,1.86,4.44,2.93,7.07,2.93s5.21-1.07,7.07-2.93c1.859-1.86,2.93-4.44,2.93-7.07 S362.11,216.791,360.25,214.931z"
         id="path14" /></g></g><g
     id="g24"><g
       id="g22"><path
         d="M182.139,44.87l-5.526-6.938c-3.436-4.313-3.44-10.342-0.014-14.66l5.6-7.054c3.434-4.326,2.711-10.616-1.614-14.05 c-4.328-3.433-10.617-2.711-14.05,1.615l-5.601,7.055c-9.248,11.652-9.234,27.917,0.034,39.554l5.526,6.939 c3.436,4.313,3.44,10.342,0.013,14.66c-3.433,4.326-2.71,10.616,1.616,14.049c1.839,1.459,4.032,2.168,6.21,2.168 c2.946,0,5.865-1.296,7.84-3.784C191.421,72.772,191.407,56.507,182.139,44.87z"
         id="path20" /></g></g><g
     id="g30"><g
       id="g28"><path
         d="M351.033,44.87l-5.526-6.938c-3.436-4.313-3.44-10.342-0.014-14.66l5.6-7.054c3.434-4.326,2.711-10.616-1.614-14.05 c-4.327-3.433-10.616-2.711-14.05,1.615l-5.601,7.055c-9.248,11.652-9.234,27.917,0.034,39.554l5.526,6.939 c3.436,4.313,3.44,10.342,0.013,14.66c-3.434,4.326-2.71,10.616,1.616,14.049c1.839,1.459,4.032,2.168,6.21,2.168 c2.946,0,5.865-1.296,7.84-3.784C360.315,72.772,360.301,56.507,351.033,44.87z"
         id="path26" /></g></g><g
     id="g36"><g
       id="g34"><path
         d="M266.586,44.869l-5.526-6.938c-3.436-4.313-3.44-10.341-0.012-14.66l5.599-7.054c3.434-4.326,2.71-10.616-1.616-14.05 c-4.327-3.433-10.616-2.709-14.05,1.616l-5.599,7.054c-9.248,11.652-9.234,27.917,0.034,39.555l5.526,6.939 c3.436,4.313,3.44,10.341,0.012,14.66c-3.434,4.326-2.71,10.616,1.616,14.049c1.839,1.459,4.032,2.168,6.21,2.168 c2.946,0,5.865-1.296,7.84-3.784C275.868,72.772,275.854,56.507,266.586,44.869z"
         id="path32" /></g></g><g
     id="g42"><g
       id="g40"><path
         d="M220.09,371.931c-1.86-1.86-4.44-2.93-7.07-2.93s-5.21,1.069-7.069,2.93c-1.87,1.86-2.931,4.44-2.931,7.07 s1.061,5.21,2.931,7.069c1.859,1.86,4.439,2.931,7.069,2.931s5.21-1.07,7.07-2.931c1.86-1.859,2.93-4.439,2.93-7.069 S221.95,373.791,220.09,371.931z"
         id="path38" /></g></g><g
     id="g48"><g
       id="g46"><path
         d="M305.58,371.931c-1.86-1.86-4.44-2.93-7.07-2.93c-2.64,0-5.21,1.069-7.07,2.93c-1.859,1.86-2.93,4.44-2.93,7.07 s1.07,5.21,2.93,7.069c1.86,1.86,4.431,2.931,7.07,2.931c2.63,0,5.21-1.07,7.07-2.931c1.859-1.859,2.93-4.439,2.93-7.069 S307.44,373.791,305.58,371.931z"
         id="path44" /></g></g><g
     id="g54"><g
       id="g52"><path
         d="M391.07,371.931c-1.86-1.86-4.44-2.93-7.07-2.93s-5.21,1.069-7.07,2.93c-1.86,1.861-2.93,4.441-2.93,7.07 c0,2.629,1.069,5.21,2.93,7.069c1.86,1.86,4.44,2.931,7.07,2.931s5.21-1.07,7.069-2.931c1.861-1.859,2.931-4.439,2.931-7.069 S392.93,373.791,391.07,371.931z"
         id="path50" /></g></g><g
     id="g60"><g
       id="g58"><path
         d="M471.91,371.932c-1.86-1.86-4.44-2.93-7.07-2.93s-5.21,1.069-7.07,2.93c-1.859,1.86-2.93,4.44-2.93,7.07 s1.07,5.209,2.93,7.069c1.86,1.86,4.44,2.931,7.07,2.931s5.21-1.07,7.07-2.931c1.859-1.859,2.93-4.439,2.93-7.069 S473.77,373.792,471.91,371.932z"
         id="path56" /></g></g><g
     id="g66"><g
       id="g64"><path
         d="M134.599,371.932c-1.859-1.86-4.439-2.93-7.069-2.93c-2.641,0-5.221,1.069-7.08,2.93c-1.86,1.86-2.92,4.44-2.92,7.07 s1.06,5.209,2.92,7.069c1.869,1.86,4.439,2.931,7.08,2.931c2.63,0,5.199-1.07,7.069-2.931c1.86-1.859,2.92-4.439,2.92-7.069 S136.459,373.792,134.599,371.932z"
         id="path62" /></g></g><g
     id="g72"><g
       id="g70"><path
         d="M55.04,371.931c-1.86-1.86-4.431-2.93-7.07-2.93c-2.63,0-5.21,1.069-7.07,2.93c-1.859,1.86-2.93,4.44-2.93,7.07 s1.07,5.21,2.93,7.069c1.86,1.86,4.44,2.931,7.07,2.931c2.63,0,5.21-1.07,7.07-2.931c1.859-1.859,2.93-4.439,2.93-7.069 S56.9,373.791,55.04,371.931z"
         id="path68" /></g></g></svg>
