<?xml version="1.0" encoding="UTF-8"?> <!-- Creator: CorelDRAW 2020 (64-Bit) --> <svg xmlns="http://www.w3.org/2000/svg" xmlns:xlink="http://www.w3.org/1999/xlink" xmlns:xodm="http://www.corel.com/coreldraw/odm/2003" xml:space="preserve" width="1772px" height="1772px" style="shape-rendering:geometricPrecision; text-rendering:geometricPrecision; image-rendering:optimizeQuality; fill-rule:evenodd; clip-rule:evenodd" viewBox="0 0 1772 1772"> <defs> <style type="text/css"> <![CDATA[ .fil0 {fill:black} ]]> </style> </defs> <g id="Слой_x0020_1"> <metadata id="CorelCorpID_0Corel-Layer"></metadata> <path class="fil0" d="M1367.12 1655.03c-7.4,-21.23 4.48,-335.09 4.65,-386.31l89.59 -0.41 10.31 385.45 -104.55 1.27zm-538.46 -302.05c44.58,0.06 83.69,-1.72 125.04,6.96l-1.85 102.66 -120.7 0.98 -2.49 -110.6zm174.22 108.76l1.44 -78.94c26.4,9.56 59.36,46.62 71.62,74.67l-73.06 4.27zm-350.82 -118.26l125.5 8.05 2.03 109.96 -122.08 -7.18 -5.45 -110.83zm860.29 -75.34c6.92,-11.34 32.2,-10.74 44.32,-13.49 15.67,-3.56 31.04,-10.18 45.96,-12.7l27.34 373.25c-17.64,12.94 -81.85,35.72 -107.61,30.2l-10.01 -377.26zm-198.42 379.02c-31.01,1.61 -86.88,-14.13 -107.28,-28.56l24.3 -374.37 87.97 20.66c5.43,20.1 -4.91,331.48 -4.99,382.27zm-831.04 -324.46l117.68 15.97 5.84 109.55c-31.42,-2.85 -87.11,-9.64 -113.9,-18.04l-9.62 -107.48zm-178.92 -51.33c20.18,6.28 39.87,16.15 61.72,23.07 21.31,6.75 43.57,10.71 65.02,17.88l9.7 106.59c-30.26,-4.66 -82.44,-23.39 -105.75,-37.04 -21.13,-12.37 -19.8,-17.7 -23.29,-46.93 -2.5,-20.91 -5.56,-41.87 -7.4,-63.57zm935.52 -82.07c40.04,-23.52 120.85,-29.61 174.83,-30.32 43.43,-0.58 151.86,5.81 178.54,29.22 -60.17,35.12 -297.14,43.48 -353.37,1.1zm-945.63 -12.48l427.9 119.19c-91.93,2.6 -266.23,-24.18 -356.36,-54.48 -45.01,-15.13 -76.53,-24.54 -71.54,-64.71zm-115.31 -188.8c30.93,2.98 464.32,127.07 501.65,138.01 164.82,48.31 332.68,91.37 498.2,138.44l-14.45 215.84c-42.08,-6.83 -44.21,-122.77 -184.81,-165.48 -91.38,-27.77 -185.33,-51.69 -277.63,-77.38 -184.91,-51.48 -369.52,-102.32 -552.02,-153.83l29.06 -95.6zm778.53 161.45c-22.45,-4.72 -117.59,-28.59 -130,-37.82 -6.8,-13.88 -4.9,-120.65 -4.4,-145.44l136.92 0.48 -2.52 182.78zm50.97 12.44c-0.16,-7.71 -1.79,-187.91 5.76,-195.04 9.92,-5.75 111.37,-9 132.52,-10.1 -2.18,59.44 -6.82,119.7 -10.18,179.44 -2.73,48.59 0.92,37.03 -52.78,40.67 -22.23,1.5 -56.27,-1.58 -75.32,-14.97zm-374.31 -204.97c23.11,1.21 45.82,3.22 67.77,4.43 80.27,4.42 75.24,-26.25 71.7,137.03l-134.37 -37.01 -5.1 -104.45zm685.11 158.27c-108.51,14.14 -109.12,39.15 -132.67,52.43l11.47 -215.8 138.13 -16.98 -16.93 180.35zm-872.54 -180.24c19.77,1.99 125.93,13.4 132.8,19.53 7.68,7.52 7.22,80.18 7.67,91.45l-131.97 -35.82 -8.5 -75.16zm924.37 174.63l17.4 -185.75c77.96,-14.92 93.08,-30.29 137.37,-42.05 -4.74,57.53 -14.21,114.32 -20.35,171.83 -7.42,69.55 -72.17,53.79 -134.42,55.97zm-1114.69 -227.52c21.57,6.13 43.31,16.92 66.28,24.16 22.18,6.98 51.33,10.02 70.62,19.2l7.99 68.58 -133.84 -36.16 -11.05 -75.78zm-15.72 -131.54c0.38,0.06 86.25,31.86 138.85,42.31 284.67,56.56 813.38,65.28 1093.71,-17.19 24.9,-7.32 48.12,-19.43 68.45,-25.09 -2.03,32.56 -1.18,62.26 -22.68,77.4 -44.3,31.19 -189.26,56.82 -244.36,64.19 -235.68,31.54 -532.17,32.64 -768.3,-0.13 -57.64,-8.01 -194.7,-32.11 -242.63,-62.96 -21.07,-13.56 -20.47,-48.41 -23.04,-78.53zm924.07 -113.25l-9.05 135.41c-10.2,6.68 -56.73,7.02 -69.52,7.73 -24.12,1.32 -47.92,2.35 -72.01,3.28l2.45 -142.85 148.13 -3.57zm-346.87 4.12l147.69 -0.18 -3.82 144.32 -141.59 -0.25 -2.28 -143.89zm-199.54 -4.11l148.25 4.24 2.2 142.66 -143.35 -8.82 -7.1 -138.08zm-112.39 125.65c-84.89,-10.78 -76.58,-6.34 -78.7,-35.02l-8.8 -100.99 148.7 9.64 6.76 130.31c-12.5,5.16 -52.11,-1.93 -67.96,-3.94zm858.56 -135.52c-0.48,7.51 -7.42,116.02 -14.02,122.2 -14.98,10.03 -116.17,19.14 -142.1,21.23l8.47 -135.46 147.65 -7.97zm-1006.31 -5.06c9.04,2.53 1.48,-1.02 6.66,3.17 7.39,11.37 11.62,94.32 12.21,114.47 -36.43,-6.17 -81.71,-19.58 -112.82,-34.2 -18.39,-8.64 -30.77,-15.47 -34.1,-39.05 -2.96,-20.91 -5.57,-42.91 -7.2,-63.74 24.48,3.41 47.66,8.85 72.89,11.9l53.48 5.75c3.43,0.48 5.57,0.78 8.88,1.7zm1047.59 117.15c1.7,-21.71 3.85,-43.47 5.85,-65.44 4.46,-48.96 -1.89,-50.81 19.44,-53.4l128.76 -16.52c-2.26,21.23 -4.61,43.25 -7.58,64.9 -3.43,24.9 -14.82,28.36 -34.88,37.91 -21.86,10.41 -85.28,31.04 -111.59,32.55zm-648.97 -175.12c22.35,-23.63 57.53,-12.89 63.86,16.66 -25.48,12.54 -52.86,12.09 -63.86,-16.66zm212.54 -19.9c20.23,-6.33 40.71,-12 60.23,-0.03 10.37,6.36 26.17,25.29 24.56,44.6l-67.31 1.05c-9.7,-12.42 -16.74,-23.29 -17.48,-45.62zm320.18 35.38c8.69,-9.66 22.64,-23.3 28.62,-38.83 54.62,2.06 139.78,7.34 191.14,18.77 -69.61,4.96 -145.75,20.53 -219.76,20.06zm-1014.09 -21.27c44.53,-4.5 88.17,-10.81 133.48,-13.93 67.22,-4.64 24.85,-11.11 103.14,35.73 -36.91,1.59 -210.74,-10.65 -236.62,-21.8zm218.84 -53.97c32.05,-34.18 92.39,-34.7 132.19,7.97 -19.4,14.75 -33.5,26.78 -68.04,25.09 -29.33,-1.43 -50.88,-14.9 -64.15,-33.06zm997.51 -0.26c0.43,-36.2 -14.97,-119.84 34.66,-111.54 37.25,6.22 24.24,84.7 23.9,121.86l-58.56 -10.32zm-1259.12 9.99c-0.63,-24.3 -0.12,-48.52 -0.38,-72.83 -0.27,-24.87 0.27,-45.67 24.83,-48.93 48.6,-6.44 34.42,78.58 33.68,112.42l-58.13 9.34zm978.36 47.91c-12.71,-54.08 30.17,-116.86 72.57,-112.69 5.51,30.2 -1.19,57.29 -15.63,77.59 -11.3,15.87 -33.13,35.56 -56.94,35.1zm-595.22 16.64c16.58,-8.96 84.72,-40.97 68.33,-73.65 -36.83,-73.45 -143.95,-103.88 -217.07,-45.39 -34.73,27.79 -15.49,30.52 -50.91,33.27 -24.85,1.92 -49.39,4.2 -74.36,5.94 0.03,-73.87 8.37,-130.06 -53.01,-153.27 -30.63,-11.58 -61.24,-0.74 -79.92,15.18 -33.28,28.39 -27.79,76.43 -27.41,123.73 0.68,84.99 -15.53,36.08 -15.04,76.27 0.64,51.47 41.5,297.88 45.55,380.72 -79.77,-14.72 -81.75,23.62 -109.7,119.34 -12.72,43.59 12.03,64.61 44.15,74.48 29.05,8.93 64.17,19.28 93.08,25.79 4.96,49.47 11.78,99.76 18.08,149.42 7.73,60.9 6.68,84.72 50.04,111.75 120.01,74.82 419.25,90.62 566.03,92.26l237.95 -6.94 48.05 32.51c-0.41,83.27 -48.25,143.39 185.47,162.6 88.71,7.28 238.37,2.32 304.85,-40.16 19.58,-12.51 33.08,-24.16 30.81,-59.37l-30.05 -408.41c-3.13,-52.01 -50.83,-67 -101.48,-75.15 7.39,-99.07 24.47,-208.17 36.86,-307.23l28.14 -231.57c8.3,-58.52 -13,-25.31 -12.92,-69.76 0.11,-68.26 12.83,-173.3 -83.77,-169.97 -86.76,2.99 -76.53,95.84 -76.78,157.55l-104.56 -8.66c1.01,-40.56 -1.62,-64.63 -21.07,-95.28 -58.3,-5.58 -97.85,23.08 -124.52,51.54 -12.08,12.89 -24.41,36.02 -29.62,59.87 -8.21,37.67 3.35,54.26 1.04,79.98l-55.2 0.62c-14.09,-99.97 -118.06,-133.43 -188.41,-68.09 -1.88,35.87 2.21,41.47 8.04,71.71l-48.58 -0.53c-27.64,-109.01 -119.23,-116.34 -179.26,-38.64l11.13 36.99 -103.82 -2.8 9.86 -6.65z"></path> <path class="fil0" d="M1280.13 231.53l18.1 47.85 265.41 -106.81c16.44,-6.92 24.58,-14.77 34.9,0.12 -4.4,16.19 -18.57,17.08 -34.64,23.38 -50.85,19.96 -275.64,109.37 -289.15,119.36l16.95 44.79c22.16,-5.3 163.51,-64.55 195.69,-77.92 32.28,-13.42 65.04,-25.97 96.89,-39.29 33.45,-13.98 66.51,-25.05 65.62,-70.25 -0.72,-36.25 -35.29,-66.86 -75.03,-58.49 -17.71,3.74 -164.53,65.79 -194.26,77.86 -28.12,11.41 -73.48,32.92 -100.48,39.4z"></path> <path class="fil0" d="M790.17 428.26c14.63,-44.39 71.31,-65.28 126.52,-44.48 -16.11,44.83 -70.87,64.88 -126.52,44.48zm-59.83 20.31c21.56,10.47 31.71,27.06 66.83,35.99 122.24,31.07 188.27,-94.84 177,-120.51 -5.1,-11.62 -47.38,-31.9 -66.37,-36.62 -79.92,-19.88 -164.93,31.85 -177.46,121.14z"></path> <path class="fil0" d="M1042 427.98c3.56,-26.46 23.08,-47.08 39.18,-57.39 25.78,-16.51 43.76,-17.17 78.3,-12.49 -6.11,27.38 -21.78,45.28 -39.99,57.56 -23.29,15.7 -48.06,16.2 -77.49,12.32zm-55.28 30.36c107.55,58.55 230.57,-6.65 226.69,-129.63 -46.89,-40.2 -155.36,-35.97 -206.31,47.58 -15.31,25.1 -18.76,48.98 -20.38,82.05z"></path> <path class="fil0" d="M1119.63 143.69c56.65,4.18 91.16,41.78 92.41,100.53 -30.45,-2.55 -55.19,-13.62 -68.73,-29.54 -12.78,-15.03 -27.21,-41.82 -23.68,-70.99zm-42.66 -46.23c-19.83,60.6 -3.36,115.3 29.26,150.93 48.96,53.49 140.4,56.1 150.17,35.18l5.77 -31.1c1.6,-16.5 0.73,-32.34 -2.95,-47.56 -19.45,-80.28 -92.17,-123.46 -182.25,-107.45z"></path> <path class="fil0" d="M557.98 309.46c64.4,-8.29 110.85,34.56 110.2,74.93 -32.76,3.51 -53.63,-0.65 -75.69,-17.19 -12.78,-9.58 -33.62,-31.75 -34.51,-57.74zm-53.71 -34.67c-0.47,148.95 131.25,190.8 218.36,142.33 1.27,-95.21 -58.07,-155.39 -135.55,-159.95 -41.45,-2.44 -51.73,8.86 -82.81,17.62z"></path> <path class="fil0" d="M912.58 221.72c45.32,-19.84 84.93,-14.06 108.45,20.68 -20.39,19.47 -64.85,19.3 -90.95,-0.45 -8.85,-6.69 -13.63,-11.01 -17.5,-20.23zm-61.95 -9.19c11.6,45.22 50.52,82.86 99.38,92.63 59.95,11.98 113.23,-18.74 133.98,-52.8 -10.15,-26.77 -20.05,-42.24 -36.44,-58.1 -15.54,-15.04 -35.78,-27.2 -63.14,-32.98 -64.76,-13.66 -100.11,16.82 -133.78,51.25z"></path> <path class="fil0" d="M730.54 249.04c23.89,-23.79 58.44,-12.45 63.64,16.88 -16.8,7.87 -33.43,18.94 -53.81,-0.18 -11.84,-11.11 -5.03,-7.07 -9.83,-16.7zm8.3 -60.09c-24.09,6.3 -37.24,14.76 -51.63,30.02 -17.7,18.78 -17.26,28.26 -2.65,56.15 16.52,31.53 53.54,64.67 106.79,47.95 21.15,-6.64 36.88,-20.28 47.56,-32.13 17.31,-19.2 15.36,-23.5 1.5,-52.29 -15.13,-31.43 -51.55,-62.79 -101.57,-49.7z"></path> </g> </svg> 