<?xml version="1.0" standalone="no"?>
<!DOCTYPE svg PUBLIC "-//W3C//DTD SVG 20010904//EN"
 "http://www.w3.org/TR/2001/REC-SVG-20010904/DTD/svg10.dtd">
<svg version="1.0" xmlns="http://www.w3.org/2000/svg"
 width="597.000000pt" height="681.000000pt" viewBox="0 0 597.000000 681.000000"
 preserveAspectRatio="xMidYMid meet">
<metadata>
Created by potrace 1.16, written by Peter Selinger 2001-2019
</metadata>
<g transform="translate(0.000000,681.000000) scale(0.100000,-0.100000)"
fill="#000000" stroke="none">
<path d="M1865 6575 c-66 -18 -162 -57 -202 -82 l-33 -19 53 -17 c75 -25 128
-57 155 -97 53 -77 13 -179 -172 -434 -134 -185 -204 -291 -249 -381 -124
-249 -113 -489 33 -705 47 -71 149 -174 201 -204 l32 -19 -25 34 c-69 92 -108
209 -108 325 0 233 93 405 435 809 294 347 359 671 156 777 -47 25 -64 28
-140 27 -47 0 -108 -7 -136 -14z"/>
<path d="M1310 6302 c-30 -10 -66 -24 -79 -31 -23 -13 -23 -13 20 -33 62 -27
79 -46 79 -85 0 -45 -17 -76 -114 -213 -107 -151 -142 -213 -162 -291 -32
-127 2 -244 102 -349 61 -64 89 -80 53 -29 -12 17 -28 51 -35 76 -42 140 14
278 205 503 107 126 162 231 169 321 4 65 4 67 -30 105 -32 34 -40 38 -94 41
-38 2 -78 -3 -114 -15z"/>
<path d="M2317 4293 l-647 -648 0 205 c0 113 -5 222 -10 242 -7 23 -23 46 -43
60 -30 21 -42 23 -177 23 -135 0 -147 -2 -177 -23 -20 -14 -36 -37 -43 -60
-13 -49 -14 -805 0 -852 l10 -35 -259 -260 c-142 -143 -264 -270 -270 -282
-16 -31 -14 -129 3 -161 49 -94 162 -142 257 -111 25 8 294 271 1014 990 539
539 985 979 990 979 5 0 451 -440 990 -979 997 -996 1003 -1001 1074 -1001 77
0 169 60 198 127 16 40 16 118 0 156 -7 15 -518 533 -1137 1152 -618 619
-1125 1125 -1125 1125 0 0 -292 -291 -648 -647z"/>
<path d="M2790 4015 l-175 -175 350 0 350 0 -175 175 c-96 96 -175 175 -175
175 0 0 -79 -79 -175 -175z"/>
<path d="M2100 3325 l-185 -185 1050 0 1050 0 -185 185 -185 185 -680 0 -680
0 -185 -185z"/>
<path d="M1390 2615 l-185 -185 433 0 432 0 0 -170 0 -170 -490 0 c-540 0
-537 0 -581 -61 -20 -28 -25 -49 -27 -114 -4 -94 13 -136 67 -172 l34 -23 498
0 499 0 0 -170 0 -170 -487 0 c-462 0 -490 -1 -531 -20 -55 -25 -81 -79 -82
-168 0 -76 16 -119 59 -155 l33 -27 1908 0 1908 0 33 27 c42 36 59 79 59 152
0 76 -23 135 -64 164 -31 22 -31 22 -538 25 l-508 3 0 169 0 170 503 0 c480 0
503 1 534 20 56 34 68 63 68 165 0 79 -3 94 -24 124 -44 61 -40 61 -586 61
l-495 0 0 170 0 170 432 0 433 0 -185 185 -185 185 -1390 0 -1390 0 -185 -185z
m2120 -710 l0 -665 -545 0 -545 0 0 665 0 665 545 0 545 0 0 -665z"/>
<path d="M1029 633 c-42 -36 -59 -79 -59 -155 0 -85 27 -140 84 -167 42 -21
45 -21 1916 -21 1871 0 1874 0 1916 21 57 27 84 82 84 167 0 76 -17 119 -59
155 l-33 27 -1908 0 -1908 0 -33 -27z"/>
</g>
</svg>
