<?xml version="1.0" standalone="no"?>
<!DOCTYPE svg PUBLIC "-//W3C//DTD SVG 20010904//EN"
 "http://www.w3.org/TR/2001/REC-SVG-20010904/DTD/svg10.dtd">
<svg version="1.0" xmlns="http://www.w3.org/2000/svg"
 width="512.000000pt" height="512.000000pt" viewBox="0 0 512.000000 512.000000"
 preserveAspectRatio="xMidYMid meet">
<metadata>
Created by potrace 1.16, written by Peter Selinger 2001-2019
</metadata>
<g transform="translate(0.000000,512.000000) scale(0.100000,-0.100000)"
fill="#000000" stroke="none">
<path d="M3245 5104 c-339 -75 -619 -307 -755 -624 -31 -74 -70 -212 -70 -249
0 -16 -9 -21 -47 -26 -582 -76 -1062 -419 -1307 -936 -104 -219 -140 -376
-161 -693 -19 -292 -47 -410 -136 -589 -95 -189 -165 -271 -480 -566 -202
-189 -229 -218 -255 -274 -27 -57 -29 -71 -29 -182 0 -101 3 -129 22 -175 46
-111 145 -210 249 -249 28 -11 278 -68 555 -126 277 -58 513 -108 524 -111 12
-3 31 -27 49 -64 38 -78 125 -161 213 -203 l68 -32 876 0 875 0 76 38 c88 43
172 126 209 206 15 31 32 53 44 55 11 3 246 52 523 111 276 58 526 114 555
125 105 40 205 139 249 250 19 46 23 75 23 175 0 111 -2 124 -29 182 -26 57
-53 85 -276 293 -302 279 -389 385 -475 574 -79 174 -108 316 -125 606 -11
203 -31 316 -84 475 -154 459 -532 849 -985 1015 -50 19 -68 29 -55 32 11 3
59 17 108 32 57 17 141 31 241 40 136 12 160 17 221 47 90 43 170 122 215 214
33 68 34 73 34 195 0 122 -1 127 -34 195 -45 92 -124 171 -216 216 -68 33 -74
34 -205 36 -93 2 -157 -3 -205 -13z m289 -313 c89 -59 89 -187 -1 -242 -25
-16 -61 -23 -158 -29 -186 -14 -328 -51 -520 -140 l-85 -39 14 34 c60 143 219
302 372 372 136 62 318 83 378 44z m-790 -931 c110 -52 213 -182 247 -311 7
-29 14 -238 19 -609 8 -581 15 -698 60 -1010 68 -459 188 -917 355 -1350 53
-137 41 -204 -46 -255 -33 -20 -52 -20 -819 -20 -767 0 -786 0 -819 20 -87 51
-99 118 -46 255 167 432 288 894 354 1350 47 321 53 427 61 1025 5 414 11 591
20 620 82 266 372 401 614 285z m739 -329 c211 -201 354 -467 401 -747 8 -49
18 -152 21 -229 11 -256 41 -411 116 -599 47 -119 90 -199 170 -316 81 -119
140 -181 388 -413 119 -110 219 -206 223 -211 4 -6 8 -31 8 -55 0 -54 -28
-101 -72 -124 -27 -14 -948 -217 -984 -217 -13 0 -111 259 -167 440 -211 686
-275 1190 -277 2175 0 300 -6 371 -36 449 -12 31 106 -56 209 -153z m-1659 94
c-10 -45 -14 -141 -14 -380 -1 -894 -50 -1357 -207 -1940 -74 -277 -215 -685
-236 -685 -36 0 -958 203 -985 217 -46 23 -72 70 -72 128 0 43 4 52 39 84 443
413 496 468 598 621 68 101 144 255 181 365 51 154 72 273 87 509 8 122 21
253 30 291 52 243 170 465 342 646 75 78 240 216 248 207 2 -2 -3 -30 -11 -63z"/>
</g>
</svg>
